<?xml version="1.0" encoding="UTF-8" standalone="no"?>
<svg
   xmlns:dc="http://purl.org/dc/elements/1.1/"
   xmlns:cc="http://creativecommons.org/ns#"
   xmlns:rdf="http://www.w3.org/1999/02/22-rdf-syntax-ns#"
   xmlns:svg="http://www.w3.org/2000/svg"
   xmlns="http://www.w3.org/2000/svg"
   viewBox="0 0 800 800"
   height="800"
   width="800"
   xml:space="preserve"
   id="svg2"
   version="1.1"><metadata
     id="metadata8"><rdf:RDF><cc:Work
         rdf:about=""><dc:format>image/svg+xml</dc:format><dc:type
           rdf:resource="http://purl.org/dc/dcmitype/StillImage" /></cc:Work></rdf:RDF></metadata><defs
     id="defs6" /><g
     transform="matrix(1.3333333,0,0,-1.3333333,0,800)"
     id="g10"><g
       transform="scale(0.1)"
       id="g12"><path
         id="path14"
         style="fill:transparent;fill-opacity:1;fill-rule:nonzero;stroke:none"
         d="M 6000,0 H 0 V 6000 H 6000 V 0" /><path
         id="path16"
         style="fill:#231f20;fill-opacity:1;fill-rule:nonzero;stroke:none"
         d="m 3238.71,4154.55 c 5.21,65.62 62.63,114.59 128.24,109.39 65.62,-5.21 114.6,-62.63 109.39,-128.24 -5.21,-65.62 -62.62,-114.59 -128.24,-109.39 -65.62,5.21 -114.59,62.62 -109.39,128.24 z M 4896.83,3070.6 c -34,241.8 -118.82,481.4 -271.86,673.91 -17.86,22.38 -45.61,36.08 -74.24,36.62 -55.57,1.03 -101.58,-46.98 -98.49,-102.33 1.23,-22.09 11,-43.68 18.63,-64.15 10.26,-27.53 20.07,-55.25 29.55,-83.06 41.96,-123.06 79.74,-247.4 104.29,-375.24 45.83,-238.7 47.09,-484.16 -8.54,-721.26 -61.39,-261.69 -188.18,-507 -366.06,-708.43 -283.29,-320.79 -699.38,-503.87 -1078.55,-497.51 217.82,233.56 344.43,640.68 221.12,1198.41 -13.94,63.08 -25.48,124.11 -34.65,183.14 42.19,0.04 84.22,10.27 122.57,32.21 127.2,72.77 165.71,244.68 86.02,383.98 -47.65,83.28 -126.8,135.73 -209.91,149.14 53.29,256.5 194.72,441.45 434.01,551.06 177.86,81.47 305.34,224.92 160.04,409.75 -171.22,217.79 -409.05,378.32 -741.18,442.1 -7.27,270.5 -217.64,497.47 -493.45,519.35 -261.28,20.73 -493.5,-149.57 -559.63,-393.67 -5.04,-21.62 -9.1,-43.57 -12.69,-65.86 -15.05,-137.83 26.14,-277.54 108.02,-388.61 43.77,-59.38 99.93,-109.95 162.75,-148.49 59.31,-36.38 121.77,-58.77 188.09,-78.38 -88.68,-2.5 -175.22,8.38 -256.65,45.88 -91.76,42.27 -170.71,105.74 -230.76,187.08 -41.79,56.62 -72.88,120.33 -92.88,187.31 C 1911.35,4388.1 1824.54,4325.8 1743.84,4256.08 1551.5,4089.91 1385.28,3880.35 1277.86,3649.2 1174.2,3426.15 1103,3186.58 1089.3,2939.78 c -15.25,-274.48 21.3,-548.47 119.42,-806.04 91.94,-241.3 232.97,-463.76 412.41,-649.45 187.44,-193.97 416.2,-350.61 667.68,-449.34 149.62,-58.739 307.93,-102.278 467.9,-120.438 179.79,-20.41 360.76,-20.582 539.92,7.789 256.02,40.551 503.68,133.219 722.71,271.949 210.73,133.47 395.15,307.7 540.04,510.75 152.48,213.69 259.06,459 312.73,715.85 44.43,212.62 55,434.43 24.72,649.75" /></g></g></svg>